<mxfile host="app.diagrams.net" modified="2023-09-16T13:18:02.247Z" agent="Mozilla/5.0 (Macintosh; Intel Mac OS X 10_15_7) AppleWebKit/537.36 (KHTML, like Gecko) Chrome/116.0.0.0 Safari/537.36" version="21.7.5" etag="IHbd6I8ZimLI-nqrgdjk" type="github">
  <diagram name="Page-1" id="zpIfpZ54SylXEvwSVUbI">
    <mxGraphModel>
      <root>
        <mxCell id="0" />
        <mxCell id="1" parent="0" />
      </root>
    </mxGraphModel>
  </diagram>
</mxfile>
